Coordinates
version=1
nRows=44
nColumns=8
inDegrees=no

Units are S.I. units (second, meters, Newtons, ...)
Angles are in radian.

endheader
time	ra_sh_e_f	ra_sh_ad_ab	ra_sh_ext_int	ra_el_e_f	ra_wr_e_f	ra_wr_s_p	ra_wr_ad_ab
      0.00000000	      0.16151934	      0.04603314	     -0.09658944	      0.23651521	      0.23651521	     -0.05290931	      0.32682534
      0.00204082	      0.16178236	      0.04603394	     -0.09670549	      0.23635928	      0.23635928	     -0.05289385	      0.32621820
      0.00408163	      0.16192708	      0.04609297	     -0.09684842	      0.23643232	      0.23643232	     -0.05284486	      0.32689883
      0.00612245	      0.16221699	      0.04606827	     -0.09688785	      0.23648788	      0.23648788	     -0.05277600	      0.32719590
      0.00816327	      0.16245850	      0.04608614	     -0.09695820	      0.23642784	      0.23642784	     -0.05269770	      0.32771029
      0.01020408	      0.16268881	      0.04607892	     -0.09699226	      0.23641171	      0.23641171	     -0.05262562	      0.32784606
      0.01224490	      0.16296885	      0.04601106	     -0.09683184	      0.23629655	      0.23629655	     -0.05254030	      0.32745668
      0.01428571	      0.16320633	      0.04600543	     -0.09684663	      0.23613076	      0.23613076	     -0.05246641	      0.32760902
      0.01632653	      0.16348235	      0.04596508	     -0.09684081	      0.23616885	      0.23616885	     -0.05241722	      0.32747908
      0.01836735	      0.16373058	      0.04603394	     -0.09709531	      0.23622620	      0.23622620	     -0.05237386	      0.32766369
      0.02040816	      0.16396582	      0.04598676	     -0.09698419	      0.23625085	      0.23625085	     -0.05231503	      0.32779453
      0.02244898	      0.16415625	      0.04604057	     -0.09713519	      0.23618005	      0.23618005	     -0.05220822	      0.32823095
      0.02448980	      0.16438253	      0.04608072	     -0.09726424	      0.23621679	      0.23621679	     -0.05217791	      0.32866917
      0.02653061	      0.16467826	      0.04603214	     -0.09721853	      0.23602950	      0.23602950	     -0.05209720	      0.32806785
      0.02857143	      0.16487899	      0.04608373	     -0.09739373	      0.23624681	      0.23624681	     -0.05202974	      0.32834700
      0.03061224	      0.16514067	      0.04606566	     -0.09734668	      0.23601874	      0.23601874	     -0.05192534	      0.32856790
      0.03265306	      0.16539204	      0.04605643	     -0.09737133	      0.23618767	      0.23618767	     -0.05181110	      0.32939191
      0.03469388	      0.16566715	      0.04609939	     -0.09764465	      0.23597483	      0.23597483	     -0.05186209	      0.32904734
      0.03673469	      0.16583115	      0.04612971	     -0.09773382	      0.23601516	      0.23601516	     -0.05180106	      0.32955814
      0.03877551	      0.16614973	      0.04610281	     -0.09768991	      0.23608775	      0.23608775	     -0.05165530	      0.33033331
      0.04081633	      0.16641768	      0.04612569	     -0.09777504	      0.23611822	      0.23611822	     -0.05162037	      0.33110400
      0.04285714	      0.16664440	      0.04616926	     -0.09799639	      0.23602636	      0.23602636	     -0.05156556	      0.33086966
      0.04489796	      0.16688995	      0.04616244	     -0.09805105	      0.23605280	      0.23605280	     -0.05147320	      0.33031360
      0.04693878	      0.16715341	      0.04619356	     -0.09819533	      0.23614331	      0.23614331	     -0.05144650	      0.33118465
      0.04897959	      0.16740568	      0.04617830	     -0.09819399	      0.23586506	      0.23586506	     -0.05131821	      0.33098167
      0.05102041	      0.16768304	      0.04622749	     -0.09845790	      0.23583727	      0.23583727	     -0.05137081	      0.33141272
      0.05306122	      0.16794426	      0.04623913	     -0.09849599	      0.23586819	      0.23586819	     -0.05126862	      0.33216862
      0.05510204	      0.16829287	      0.04622728	     -0.09863400	      0.23571898	      0.23571898	     -0.05119172	      0.33216145
      0.05714286	      0.16853169	      0.04626202	     -0.09876797	      0.23579605	      0.23579605	     -0.05105540	      0.33224479
      0.05918367	      0.16882025	      0.04624535	     -0.09883115	      0.23567462	      0.23567462	     -0.05098774	      0.33196206
      0.06122449	      0.16910029	      0.04629956	     -0.09904667	      0.23571181	      0.23571181	     -0.05090623	      0.33228781
      0.06326531	      0.16937855	      0.04629073	     -0.09906415	      0.23558187	      0.23558187	     -0.05079661	      0.33236712
      0.06530612	      0.16966442	      0.04628511	     -0.09913674	      0.23549943	      0.23549943	     -0.05070526	      0.33234561
      0.06734694	      0.17002064	      0.04631422	     -0.09935136	      0.23538114	      0.23538114	     -0.05062756	      0.33281922
      0.06938776	      0.17023930	      0.04634674	     -0.09943963	      0.23542998	      0.23542998	     -0.05050368	      0.33292318
      0.07142857	      0.17057490	      0.04633189	     -0.09949385	      0.23531617	      0.23531617	     -0.05042920	      0.33335512
      0.07346939	      0.17083748	      0.04638931	     -0.09971475	      0.23545283	      0.23545283	     -0.05032741	      0.33377765
      0.07551020	      0.17113365	      0.04639131	     -0.09980840	      0.23537173	      0.23537173	     -0.05024108	      0.33401872
      0.07755102	      0.17144013	      0.04641340	     -0.09992848	      0.23535067	      0.23535067	     -0.05015234	      0.33411281
      0.07959184	      0.17174841	      0.04641641	     -0.09995402	      0.23525388	      0.23525388	     -0.04997666	      0.33444797
      0.08163265	      0.17203697	      0.04644934	     -0.10014669	      0.23541250	      0.23541250	     -0.04990981	      0.33484721
      0.08367347	      0.17234838	      0.04646560	     -0.10025468	      0.23536635	      0.23536635	     -0.04979316	      0.33518416
      0.08571429	      0.17260020	      0.04651920	     -0.10043973	      0.23540309	      0.23540309	     -0.04966226	      0.33575545
      0.08775510	      0.17298196	      0.04650194	     -0.10050605	      0.23555902	      0.23555902	     -0.04958597	      0.33621383
